<?xml version="1.0" encoding="UTF-8" standalone="no"?>
<svg
   xmlns:dc="http://purl.org/dc/elements/1.1/"
   xmlns:cc="http://creativecommons.org/ns#"
   xmlns:rdf="http://www.w3.org/1999/02/22-rdf-syntax-ns#"
   xmlns:svg="http://www.w3.org/2000/svg"
   xmlns="http://www.w3.org/2000/svg"
   xmlns:xlink="http://www.w3.org/1999/xlink"
   xmlns:sodipodi="http://sodipodi.sourceforge.net/DTD/sodipodi-0.dtd"
   xmlns:inkscape="http://www.inkscape.org/namespaces/inkscape"
   inkscape:version="1.0beta2 (unknown)"
   sodipodi:docname="electrocomm.svg"
   viewBox="0 0 1066.6667 754.66669"
   height="754.66669"
   width="1066.6667"
   xml:space="preserve"
   id="svg2"
   version="1.1"><metadata
     id="metadata8"><rdf:RDF><cc:Work
         rdf:about=""><dc:format>image/svg+xml</dc:format><dc:type
           rdf:resource="http://purl.org/dc/dcmitype/StillImage" /><dc:title></dc:title></cc:Work></rdf:RDF></metadata><defs
     id="defs6"><linearGradient
       id="linearGradient896"
       inkscape:collect="always"><stop
         id="stop892"
         offset="0"
         style="stop-color:#009e9d;stop-opacity:1" /><stop
         id="stop894"
         offset="1"
         style="stop-color:#00a7ff;stop-opacity:1" /></linearGradient><clipPath
       id="clipPath18"
       clipPathUnits="userSpaceOnUse"><path
         inkscape:connector-curvature="0"
         id="path16"
         d="M 0,566 H 800 V 0 H 0 Z" /></clipPath><linearGradient
       gradientUnits="userSpaceOnUse"
       y2="-8.0940456"
       x2="2.2205422"
       y1="-447.76755"
       x1="-108.15331"
       id="linearGradient898"
       xlink:href="#linearGradient896"
       inkscape:collect="always" /></defs><sodipodi:namedview
     inkscape:current-layer="g10"
     inkscape:window-maximized="1"
     inkscape:window-y="30"
     inkscape:window-x="0"
     inkscape:cy="282.1227"
     inkscape:cx="-55.904265"
     inkscape:zoom="0.37198063"
     inkscape:snap-center="true"
     inkscape:snap-bbox-midpoints="false"
     inkscape:snap-bbox-edge-midpoints="false"
     inkscape:bbox-paths="false"
     inkscape:bbox-nodes="false"
     inkscape:snap-bbox="false"
     inkscape:object-paths="true"
     showgrid="false"
     id="namedview4"
     inkscape:window-height="980"
     inkscape:window-width="1920"
     inkscape:pageshadow="2"
     inkscape:pageopacity="0"
     guidetolerance="10"
     gridtolerance="10"
     objecttolerance="10"
     borderopacity="1"
     inkscape:document-rotation="0"
     bordercolor="#666666"
     pagecolor="#ffffff"><inkscape:grid
       id="grid847"
       type="xygrid" /></sodipodi:namedview><g
     transform="matrix(1.3333333,0,0,-1.3333333,0,754.66667)"
     inkscape:label="electricity-icon"
     inkscape:groupmode="layer"
     id="g10"><path
       inkscape:transform-center-y="132.66652"
       inkscape:transform-center-x="120.47124"
       style="fill:#8080ff;fill-opacity:1;stroke:none;stroke-width:0.75px;stroke-linecap:butt;stroke-linejoin:miter;stroke-opacity:1;image-rendering:auto"
       d="m 349.57243,161.00001 14.17758,45 H 291.9561 c -7.5,1e-5 -22.5,-11.25 -22.5,-22.5 0,-11.25 14.99999,-22.49999 22.49999,-22.5 z"
       id="path851-7"
       inkscape:connector-curvature="0"
       sodipodi:nodetypes="cccccc" /><path
       inkscape:transform-center-y="232.66652"
       inkscape:transform-center-x="166.2241"
       sodipodi:nodetypes="cccccc"
       inkscape:connector-curvature="0"
       id="path851-6-5"
       d="m 325.94312,85.999994 14.17759,45.000016 H 246.9561 c -7.5,0 -22.5,-11.25 -22.5,-22.5 0,-11.250006 14.99999,-22.500006 22.49999,-22.500016 z"
       style="fill:#808080;fill-opacity:1;stroke:none;stroke-width:0.75px;stroke-linecap:butt;stroke-linejoin:miter;stroke-opacity:1;image-rendering:auto" /><g
       id="g12"><g
         clip-path="url(#clipPath18)"
         id="g14"><g
           transform="translate(450.9072,508.5244)"
           id="g20"><path
             inkscape:connector-curvature="0"
             id="path22"
             style="fill:url(#linearGradient898);fill-opacity:1;fill-rule:nonzero;stroke:none;stroke-opacity:0.99934852;stroke-width:10.49999998;stroke-linejoin:round;stroke-linecap:round;stroke-miterlimit:4;stroke-dasharray:none;paint-order:normal"
             d="m 0,0 c -3.911,0 -7.728,-1.833 -10.151,-5.18 l -141.242,-195.101 -40.565,-56.034 c -2.742,-3.788 -3.145,-8.788 -1.045,-12.966 2.1,-4.18 6.353,-6.838 11.028,-6.898 l 75.442,-0.965 36.916,-0.468 -49.257,-156.343 c -1.843,-5.849 0.821,-12.171 6.294,-14.939 l 1.597,-0.806 c 1.801,-0.91 3.733,-1.349 5.642,-1.349 3.89,0 7.688,1.814 10.114,5.131 l 142.247,194.494 42.518,58.132 c 2.784,3.808 3.193,8.784 1.057,12.988 -2.135,4.205 -6.451,6.78 -11.164,6.78 h -0.008 l -77.987,0.036 -37.329,0.018 49.423,156.351 c 1.855,5.861 -0.821,12.209 -6.313,14.971 l -1.601,0.81 C 3.821,-0.436 1.898,0 0,0" /><path
             d="m 0,0 c -3.911,0 -7.728,-1.833 -10.151,-5.18 l -141.242,-195.101 -40.565,-56.034 c -2.742,-3.788 -3.145,-8.788 -1.045,-12.966 2.1,-4.18 6.353,-6.838 11.028,-6.898 l 75.442,-0.965 36.916,-0.468 -49.257,-156.343 c -1.843,-5.849 0.821,-12.171 6.294,-14.939 l 1.597,-0.806 c 1.801,-0.91 3.733,-1.349 5.642,-1.349 3.89,0 7.688,1.814 10.114,5.131 l 142.247,194.494 42.518,58.132 c 2.784,3.808 3.193,8.784 1.057,12.988 -2.135,4.205 -6.451,6.78 -11.164,6.78 h -0.008 l -77.987,0.036 -37.329,0.018 49.423,156.351 c 1.855,5.861 -0.821,12.209 -6.313,14.971 l -1.601,0.81 C 3.821,-0.436 1.898,0 0,0"
             style="fill:url(#linearGradient898);fill-opacity:1;fill-rule:nonzero;stroke:none;stroke-opacity:0.99934852;stroke-width:10.49999998;stroke-linejoin:round;stroke-linecap:round;stroke-miterlimit:4;stroke-dasharray:none;paint-order:normal"
             id="path914"
             inkscape:connector-curvature="0" /></g></g></g><path
       sodipodi:nodetypes="cccccc"
       inkscape:connector-curvature="0"
       id="path978"
       d="m 445.42759,404.75001 -14.17758,-45 h 71.79391 c 7.5,-10e-6 22.5,11.25 22.5,22.5 0,11.25 -14.99999,22.49999 -22.49999,22.5 z"
       style="fill:#808080;fill-opacity:1;stroke:none;stroke-width:0.75px;stroke-linecap:butt;stroke-linejoin:miter;stroke-opacity:1;image-rendering:auto"
       inkscape:transform-center-x="-110.0907"
       inkscape:transform-center-y="-132.66652" /><path
       style="fill:#8080ff;fill-opacity:1;stroke:none;stroke-width:0.75px;stroke-linecap:butt;stroke-linejoin:miter;stroke-opacity:1;image-rendering:auto"
       d="m 469.0569,479.75002 -14.17759,-45.00001 h 93.16461 c 7.5,0 22.5,11.25 22.5,22.5 0,11.25 -14.99999,22.5 -22.49999,22.50001 z"
       id="path980"
       inkscape:connector-curvature="0"
       sodipodi:nodetypes="cccccc"
       inkscape:transform-center-x="-155.84357"
       inkscape:transform-center-y="-232.66652" /></g></svg>
